<?xml version="1.0" encoding="utf-8"?>
<!-- Uploaded to: SVG Repo, www.svgrepo.com, Generator: SVG Repo Mixer Tools -->
<!DOCTYPE svg PUBLIC "-//W3C//DTD SVG 1.1//EN" "http://www.w3.org/Graphics/SVG/1.1/DTD/svg11.dtd">
<svg fill="#000000" width="800px" height="800px" viewBox="0 0 1000 1000" version="1.1" xmlns="http://www.w3.org/2000/svg" xmlns:xlink="http://www.w3.org/1999/xlink"  enable-background="new 0 0 1000 1000" xml:space="preserve">

<g>
<g transform="translate(0.000000,511.000000) scale(0.100000,-0.100000)">
<path d="M3423,4940.7c-245.7-41.9-401.5-79.9-423.5-99.9c-24-22-36-61.9-36-123.8c0-49.9,75.9-675.2,171.8-1386.4c93.9-713.2,167.8-1298.5,163.8-1300.5c-863-649.2-1214.6-920.9-1224.5-946.9c-6-16-51.9-511.4-99.9-1100.7c-49.9-589.3-131.8-1542.2-181.8-2119.5c-125.8-1446.3-115.9-1702,77.9-2097.5c71.9-143.8,259.7-351.6,335.6-367.6c77.9-16,1338.4-155.8,1428.3-155.8c203.8-4,571.3,297.6,711.2,583.3c40,83.9,117.9,313.6,173.8,519.4c215.7,791.1,361.6,1118.7,499.4,1118.7c139.8,0,313.6-393.5,493.4-1112.7c53.9-223.7,119.9-435.5,161.8-521.4c127.9-273.7,409.5-501.4,735.1-593.3c149.8-43.9,385.5-34,888.9,40c493.4,73.9,499.4,73.9,625.3,207.8c201.8,209.8,315.6,521.4,355.6,954.9c22,243.7,18,311.6-77.9,1424.3c-55.9,643.2-139.8,1618.1-183.8,2167.4c-45.9,549.3-93.9,1020.8-107.9,1048.7c-16,38-1096.7,861-1226.5,936.9c-22,12,4,257.7,143.8,1312.4c93.9,713.1,171.8,1330.4,171.8,1372.4c0,159.8-8,163.8-539.4,253.7c-255.7,44-383.6,57.9-417.5,44c-38-14-129.8-177.8-431.5-765.1l-381.5-747.1h-215.7h-215.7l-415.5,735.1c-227.7,403.5-425.5,747.1-439.5,763.1C3908.4,5024.6,3874.5,5022.6,3423,4940.7z M3722.7,4689c0-4,99.9-557.3,219.7-1230.5c121.9-673.2,219.7-1230.5,219.7-1242.5c0-10-109.9-18-255.7-18h-255.7l-155.8,1208.6c-85.9,663.2-151.8,1220.5-145.8,1236.5c8,22,49.9,32,147.8,37.9c73.9,4,155.8,8,181.8,10C3702.7,4693,3722.7,4691,3722.7,4689z M6517.3,4675c49.9,0,103.9-8,117.8-16c20-14-6-259.7-125.8-1174.6c-81.9-635.2-153.8-1186.6-159.8-1220.6l-12-65.9h-259.7c-237.7,0-259.7,2-249.7,35.9c6,18,95.9,555.3,201.8,1192.6c103.9,637.2,195.8,1184.6,201.7,1216.6c12,53.9,16,55.9,101.9,43.9C6383.5,4681,6467.4,4675,6517.3,4675z M4383.9,3574.3c111.9-197.8,215.7-373.5,231.7-389.5c24-24,99.9-28,421.5-24l393.5,6l155.8,315.6c85.9,175.8,159.8,313.6,165.8,309.6c4-4-48-365.6-115.9-801l-125.8-793.1h-513.4h-511.4l-12,55.9c-6,30-73.9,405.5-151.8,833c-75.9,429.5-143.8,795-147.8,815c-4,18-6,34-2,34C4176.1,3935.9,4272,3774.1,4383.9,3574.3z M6994.8,1430.9c305.6-247.7,565.3-459.5,577.3-475.4c12-14,28-113.9,36-219.7l14-195.8H4963.2H2302.4l14,163.8c8,91.9,20,185.8,26,213.7c10,30,209.8,199.8,591.3,501.4l579.3,455.4l1462.3,2l1464.2,2L6994.8,1430.9z M3423,156.4c-2-93.9-83.9-313.6-157.8-423.5c-91.9-133.8-231.7-261.7-361.6-329.6c-129.8-69.9-399.5-149.8-567.3-171.8l-117.9-14l12,187.8c8,101.9,28,327.6,47.9,501.4l32,313.6h557.3H3423V156.4z M6149.8,116.4C6381.5-594.7,6825-942.3,7564.1-990.3l193.8-14v-85.9c0-45.9,32-465.4,71.9-930.9c89.9-1058.7,99.9-1600.1,34-1835.8c-53.9-189.8-143.8-369.6-221.7-443.5c-55.9-53.9-89.9-61.9-565.3-135.8c-565.3-89.9-561.3-89.9-785.1,28c-147.8,79.9-287.6,219.7-355.6,357.6c-27.9,57.9-83.9,231.7-123.8,385.5c-265.7,1012.8-497.4,1408.3-831,1408.3c-127.8,0-233.7-51.9-325.6-161.8c-151.8-175.8-253.7-427.5-475.4-1166.6c-65.9-219.7-143.8-439.5-171.8-487.4c-79.9-137.8-193.8-249.7-323.6-319.6l-117.9-61.9l-595.3,59.9c-329.6,34-617.3,65.9-639.2,69.9c-57.9,12-175.8,189.8-237.7,357.6c-71.9,193.8-115.9,499.4-103.9,731.1c16,293.7,153.8,2165.4,161.8,2189.4c6,12,81.9,27.9,175.8,33.9c337.6,24,691.2,167.8,916.9,369.6c209.8,189.8,377.6,497.4,429.5,789.1l12,73.9h1214.6h1214.5L6149.8,116.4z M7687.9,26.5c6-107.9,20-293.6,30-415.5c12-119.9,20-249.7,20-283.7v-65.9H7632c-141.8,0-393.5,65.9-551.4,143.8c-81.9,39.9-179.8,111.9-271.7,203.8c-117.9,115.9-161.8,177.8-235.7,331.6c-48,103.9-93.9,209.7-99.9,235.7l-10,43.9h605.3h605.3L7687.9,26.5z"/>
</g>
</g>
</svg>