<?xml version="1.0" encoding="utf-8"?>
<!-- Uploaded to: SVG Repo, www.svgrepo.com, Generator: SVG Repo Mixer Tools -->
<!DOCTYPE svg PUBLIC "-//W3C//DTD SVG 1.1//EN" "http://www.w3.org/Graphics/SVG/1.1/DTD/svg11.dtd">
<svg fill="#000000" width="800px" height="800px" viewBox="0 0 1000 1000" version="1.1" xmlns="http://www.w3.org/2000/svg" xmlns:xlink="http://www.w3.org/1999/xlink"  enable-background="new 0 0 1000 1000" xml:space="preserve">

<g>
<g transform="translate(0.000000,512.000000) scale(0.100000,-0.100000)">
<path d="M5921.6,4980.5c-21.7-21.7-43.5-63.2-51.4-92.9c-85-391.3-241.1-620.5-501.9-745c-122.5-59.3-138.3-61.3-385.3-61.3c-251,0-260.8,2-389.3,65.2c-229.2,112.6-418.9,371.5-474.3,644.2c-23.7,126.5-98.8,217.4-164,203.5c-122.5-25.7-1235.1-359.7-1284.5-383.4c-31.6-15.8-158.1-128.4-276.7-251c-474.3-478.2-664-843.8-1624.4-3144C382.6,289.2,366.8,245.7,392.5,192.4C416.2,143,513,89.6,1030.7-161.3l608.6-296.4l51.4,37.5c27.7,21.7,154.1,209.5,280.6,418.9c128.5,209.4,237.1,385.3,243.1,391.3c5.9,7.9,7.9-81,2-193.7c-5.9-112.6-19.8-468.3-31.6-788.5c-19.8-588.9-124.5-3193.4-148.2-3707.2c-13.8-324.1,2-377.4,132.4-442.7c77.1-39.5,104.7-41.5,954.5-35.6c830,5.9,879.4,7.9,918.9,43.5c23.7,21.7,41.5,61.3,41.5,88.9c0,27.7,13.8,138.3,29.6,245c128.4,847.8,454.5,1663.9,723.3,1802.2c63.2,33.6,209.5,39.5,282.6,9.9c260.8-98.8,608.6-928.8,733.1-1748.8c17.8-118.6,35.6-247,41.5-282.6c7.9-47.4,23.7-71.2,63.2-85c37.6-13.8,334-13.8,948.5,0c948.5,23.7,992,27.7,1021.6,118.6c5.9,21.7-2,308.3-19.8,638.3c-15.8,330-57.3,1239-88.9,2021.5c-31.6,782.5-69.2,1622.4-81,1863.5c-11.9,243.1-17.8,444.6-13.8,448.6s94.9-136.4,203.5-310.3c254.9-411,296.4-466.4,353.7-482.2c37.5-7.9,187.7,55.3,638.3,274.7c324.1,158.1,612.6,296.4,644.2,308.3c88.9,35.6,71.2,116.6-112.6,571.1c-537.5,1322-1150.1,2683.5-1377.3,3061c-247,409-626.4,831.9-782.5,873.4c-41.5,11.9-339.9,90.9-665.9,179.8c-324.1,86.9-606.7,158.1-626.4,158.1C5978.9,5020,5943.3,5002.2,5921.6,4980.5z M3872.4,4557.6c79-245,298.4-482.2,577-614.6l146.2-71.1l-9.9-1337.8c-4-735.1-13.8-1908.9-19.8-2604.5l-11.9-1268.7l-126.5-33.6c-308.3-83-598.8-337.9-841.8-737.1c-296.4-488.1-537.5-1308.2-614.6-2084.8l-25.7-241.1l-330-5.9l-330-3.9v55.3c0,29.6,17.8,335.9,39.5,677.8c73.1,1165.9,193.7,3487.8,229.2,4444.3c11.8,280.6,19.8,355.7,47.4,395.2c116.6,168,256.9,553.3,326.1,897.1c71.2,355.7,94.8,719.3,83,1304.2c-7.9,511.8-31.6,725.2-102.8,966.3c-21.7,73.1-21.7,96.8-4,102.8c124.5,43.5,881.4,264.8,905.1,264.8C3828.9,4664.3,3850.6,4628.7,3872.4,4557.6z M6613.2,4508.2c369.5-98.8,424.9-118.6,422.9-152.2c-2-19.8-21.7-126.5-43.5-235.2c-57.3-272.7-81-519.7-94.9-964.3c-25.7-814.2,71.1-1296.3,397.2-1962.3l146.2-296.4l79-2015.6c96.8-2414.8,116.6-2887.1,132.4-3124.2l11.9-179.8l-363.6,9.9c-197.6,5.9-363.6,11.9-365.6,13.8c-4,2-19.8,136.3-35.6,300.4C6712-2281.7,6129.1-1426,5008.6-1311.4l-134.4,11.9v2557.1v2557.1h134.4c185.8,0,385.3,47.4,549.4,128.4c195.6,94.8,335.9,251,458.4,503.9c79,164,98.8,193.7,132.4,185.7C6170.6,4626.8,6380,4571.4,6613.2,4508.2z M7492.6,4043.8c191.7-247,369.5-537.5,533.6-871.5C8152.6,2909.5,9207.8,469,9225.6,397.9c4-19.8-128.4-100.8-405.1-251L8411.5-74.4l-130.4,185.7c-241.1,343.8-383.4,588.9-581,986.1c-217.4,442.6-349.8,802.3-428.8,1173.8c-51.4,235.2-53.4,278.6-53.4,782.5c0,407.1,7.9,582.9,33.6,741c45.4,278.6,77.1,415,94.9,415C7354.3,4209.8,7421.5,4134.7,7492.6,4043.8z M2659.1,3941c21.7-106.7,49.4-292.5,63.2-413c33.6-290.5,33.6-950.5,2-1116.5c-124.5-626.4-466.4-1387.2-999.9-2227.1c-83-134.4-164-243.1-177.8-243.1c-29.6,0-841.8,391.3-841.8,405.1c0,9.9,369.5,903.1,592.8,1432.7c543.4,1286.4,865.5,1908.9,1185.7,2290.3c79,94.9,108.7,118.6,120.6,96.8C2611.6,4150.5,2637.3,4049.7,2659.1,3941z M5297.2-1659.2c209.5-53.4,371.5-144.2,537.5-302.3c304.3-288.5,509.8-711.4,650.1-1347.7c77.1-347.8,177.8-1078.9,154.1-1122.4c-11.8-19.8-417-17.8-428.8,3.9c-7.9,9.9-25.7,92.9-43.5,183.8c-90.9,490.1-239.1,970.3-403.1,1310.2c-245,507.9-488.1,705.5-835.9,677.8c-335.9-27.7-600.7-328-833.9-952.5c-94.8-256.9-215.4-731.2-258.9-1025.6l-35.6-231.2H3576c-166,0-223.3,5.9-223.3,25.7c0,106.7,49.4,531.6,88.9,774.6c193.7,1165.9,606.7,1849.6,1217.3,2013.7C4817-1607.9,5115.4-1611.8,5297.2-1659.2z"/>
</g>
</g>
</svg>