<?xml version="1.0" standalone="no"?>
<!DOCTYPE svg PUBLIC "-//W3C//DTD SVG 20010904//EN"
 "http://www.w3.org/TR/2001/REC-SVG-20010904/DTD/svg10.dtd">
<svg version="1.0" xmlns="http://www.w3.org/2000/svg"
 viewBox="0 0 2600.000000 2600.000000"
 preserveAspectRatio="xMidYMid meet">
<metadata>
Created by potrace 1.15, written by Peter Selinger 2001-2017
</metadata>
<g transform="translate(0.000000,2600.000000) scale(0.100000,-0.100000)"
fill="#000000" stroke="none">
<path d="M12455 23369 c-1594 -81 -3169 -537 -4560 -1321 -2128 -1200 -3790
-3141 -4634 -5412 -370 -995 -565 -1919 -643 -3041 -16 -230 -16 -987 0 -1210
43 -594 106 -1068 208 -1545 382 -1787 1191 -3384 2418 -4770 154 -174 652
-672 826 -826 1709 -1513 3783 -2409 6025 -2603 321 -28 493 -35 890 -35 513
0 846 20 1320 79 2862 361 5449 1907 7139 4265 1437 2004 2105 4439 1900 6925
-179 2182 -1067 4278 -2517 5940 -1290 1478 -2954 2556 -4827 3124 -805 244
-1626 385 -2500 431 -223 11 -809 11 -1045 -1z m910 -1249 c1112 -50 2139
-277 3135 -693 2497 -1043 4424 -3160 5221 -5737 587 -1897 537 -3953 -141
-5815 -576 -1581 -1598 -2996 -2925 -4047 -1132 -896 -2485 -1522 -3885 -1797
-852 -168 -1745 -214 -2610 -136 -1370 124 -2680 552 -3860 1262 -1175 707
-2180 1670 -2935 2813 -796 1204 -1292 2573 -1450 4000 -38 344 -46 482 -52
891 -9 610 25 1070 118 1632 153 919 426 1754 849 2597 551 1094 1316 2066
2260 2870 993 846 2193 1483 3452 1834 909 253 1899 368 2823 326z"/>
<path d="M7242 17067 l-1682 -1682 1028 -1028 1027 -1027 683 682 682 683 0
-3733 0 -3732 4035 0 4035 0 0 3705 c0 2038 3 3705 7 3705 5 0 303 -295 664
-656 l656 -656 1021 1029 1022 1028 -1682 1682 -1683 1683 -1086 0 -1086 0
-12 -147 c-38 -472 -223 -873 -552 -1201 -495 -494 -1218 -670 -1893 -461
-483 149 -890 498 -1123 962 -116 231 -193 541 -193 774 l0 73 -1065 0 -1065
0 0 -22 0 -21 -23 21 c-13 12 -25 22 -28 22 -2 0 -761 -757 -1687 -1683z"/>
</g>
</svg>
