<?xml version="1.0" encoding="utf-8"?>
<!-- Uploaded to: SVG Repo, www.svgrepo.com, Generator: SVG Repo Mixer Tools -->
<!DOCTYPE svg PUBLIC "-//W3C//DTD SVG 1.1//EN" "http://www.w3.org/Graphics/SVG/1.1/DTD/svg11.dtd">
<svg fill="#000000" width="800px" height="800px" viewBox="0 0 1000 1000" version="1.1" xmlns="http://www.w3.org/2000/svg" xmlns:xlink="http://www.w3.org/1999/xlink"  enable-background="new 0 0 1000 1000" xml:space="preserve">

<g>
<g transform="translate(0.000000,511.000000) scale(0.100000,-0.100000)">
<path d="M1060.5,1736.9c-209.4-27.4-405.1-68.5-528.3-115.5c-193.7-72.4-381.6-279.8-420.7-465.7C88,1044.2,150.6,883.7,254.3,780c74.4-72.4,117.4-97.8,229-129.2l137-39.1L632,445.4c5.9-92,23.5-205.5,37.2-254.4c50.9-187.9,185.9-405.1,373.8-596.8l95.9-99.8L655.5-679.8c-266.1-97.8-499-191.8-518.6-209.4c-88.1-86.1-7.8-230.9,127.2-230.9c43.1,0,297.4,80.2,614.4,195.7c299.4,107.6,553.8,195.7,565.5,195.7s99.8-50.9,195.7-113.5c710.3-467.7,1381.5-710.3,1878.5-682.9c442.2,25.4,790.6,223.1,1035.2,589c174.2,262.2,303.3,618.3,303.3,835.6c0,74.4,7.8,99.8,37.2,115.4c43.1,21.5,160.5,25.4,252.4,7.8c54.8-11.8,58.7-17.6,70.5-127.2c19.6-170.2,119.4-508.8,195.7-659.5c82.2-164.4,221.1-350.3,340.5-455.9c291.6-256.4,729.9-362,1178-283.7c412.9,72.4,986.2,317,1444.1,616.4c133.1,88.1,248.5,158.5,256.4,158.5c7.8,0,219.2-88.1,467.7-195.7c295.5-129.2,475.5-195.7,522.5-195.7c84.1,0,166.3,70.5,166.3,144.8c0,97.8-90,156.5-514.6,334.6l-405.1,170.2l90,90c270.1,270,395.3,520.5,416.8,833.6l11.7,176.1l127.2,27.4c150.7,33.3,213.3,74.4,293.5,189.8c148.7,215.2,119.4,405.1-97.8,618.4c-144.8,142.8-238.7,187.9-508.8,248.5c-236.8,52.8-1111.5,45-1483.3-11.7c-614.5-95.9-1152.6-225-1471.5-350.3c-534.2-211.3-872.7-497-1009.7-857.1l-52.8-138.9h-193.7l-191.8,2l-50.9,131.1c-97.8,256.3-279.8,475.5-528.3,634c-403.1,258.3-1129.1,469.6-2013.6,585.1C1923.5,1744.7,1266,1762.3,1060.5,1736.9z M1412.8,1461c-15.7-9.8-107.6-64.6-203.5-121.3c-164.4-95.9-379.6-279.8-448.1-381.6c-29.4-45-33.3-45-140.9-21.5c-121.3,27.4-205.5,101.7-205.5,183.9c0,60.7,101.8,178.1,193.7,223.1c131.1,68.5,383.5,109.6,804.3,135C1438.2,1480.5,1438.2,1478.6,1412.8,1461z M9040.5,1441.4c250.5-29.4,403.1-84.1,491.2-176.1c97.8-99.8,105.7-137,48.9-219.2c-45-68.5-103.7-97.8-242.7-121.3c-64.6-11.7-70.4-7.8-107.6,58.7c-62.6,119.4-274,295.5-467.7,393.3c-97.8,48.9-180,92-182,93.9C8568.9,1480.5,8874.1,1461,9040.5,1441.4z M7997.5,1275.1c487.3-74.4,861-281.8,982.3-547.9c43.1-93.9,48.9-129.2,43.1-270c-7.8-138.9-17.6-180-84.2-317c-160.4-324.8-636-712.3-1234.7-1005.8c-1091.9-536.2-1749.4-414.9-2105.5,387.5c-338.5,765.1-29.3,1317,913.8,1626.1C7028.9,1318.1,7475,1355.3,7997.5,1275.1z M2849.1,1257.5c234.8-31.3,589-127.2,819.9-225c364-152.6,610.5-364,753.4-645.8c80.2-156.5,84.2-176.1,84.2-332.7c2-354.2-172.2-767.1-422.7-1007.8c-328.7-315-857.1-350.3-1477.4-93.9c-446.2,182-919.7,461.8-1195.6,704.5C1011.6,7,853.1,357.3,952.9,662.6C1099.7,1100.9,1966.5,1372.9,2849.1,1257.5z"/>
</g>
</g>
</svg>