<?xml version="1.0" encoding="utf-8"?>
<!-- Uploaded to: SVG Repo, www.svgrepo.com, Generator: SVG Repo Mixer Tools -->
<!DOCTYPE svg PUBLIC "-//W3C//DTD SVG 1.1//EN" "http://www.w3.org/Graphics/SVG/1.1/DTD/svg11.dtd">
<svg fill="#000000" width="800px" height="800px" viewBox="0 0 1000 1000" version="1.1" xmlns="http://www.w3.org/2000/svg" xmlns:xlink="http://www.w3.org/1999/xlink"  enable-background="new 0 0 1000 1000" xml:space="preserve">

<g>
<g transform="translate(0.000000,512.000000) scale(0.100000,-0.100000)">
<path d="M3194.7,4852.4c-740.2-314.6-1198-542.5-1351.3-669.6c-181.5-155.3-445.7-792.6-716-1742.5C790.6,1262.5,219.9-1278.8,270.3-1373.6c36.3-64.5,115-88.7,730.1-219.8c467.9-100.8,613.1-125,655.5-108.9c46.4,14.1,90.8,82.7,254.1,401.4c183.5,357,195.6,377.1,185.6,282.4c-10.1-94.8-52.4-691.8-80.7-1151.6c-14.1-193.6-12.1-205.7,34.3-258.2c26.2-32.3,100.8-72.6,177.5-100.8c189.6-64.6,379.2-193.6,540.5-363c161.4-169.4,215.8-258.1,441.7-718c203.7-413.5,298.5-556.7,480-736.1C4003.5-4657,4370.5-4780,4977.6-4780c782.5,0,1246.4,195.6,1540.9,651.4c96.8,151.3,310.6,586.9,367.1,750.3c18.2,56.5,56.5,135.1,82.7,175.5c26.3,42.3,80.7,127.1,119,187.6c141.2,227.9,496.1,516.3,734.1,597c42.3,16.1,98.8,48.4,125,72.6c44.4,40.3,48.4,62.5,48.4,207.7c0,155.3-28.2,796.6-48.4,1097.1c-6,90.8-4,133.1,10.1,119c10.1-10.1,104.9-181.5,207.7-381.2c125-238,205.7-371.1,238-389.2c44.4-26.2,100.9-14.1,633.3,129.1c320.7,86.7,605.1,159.3,631.3,159.3c114.9,4,100.8,106.9-211.8,1524.7c-502.2,2279-970.1,3747.3-1280.7,4025.6c-163.4,147.2-1194,649.4-1676,816.8c-108.9,38.3-141.2,42.3-183.5,24.2c-30.3-14.1-121-131.1-225.9-288.4c-381.2-576.8-820.9-1052.8-1111.3-1206.1c-38.3-20.2-62.5-10.1-181.5,74.6c-155.3,108.9-443.7,397.3-566.7,566.7c-129.1,179.5-290.4,457.8-369.1,641.4c-60.5,141.2-88.7,179.5-143.2,209.8c-36.3,20.2-82.7,36.3-98.8,34.3C3602.1,5019.8,3410.5,4945.2,3194.7,4852.4z M6748.4,4535.8c385.2-163.4,897.5-417.5,1089.1-540.5c153.3-98.8,155.3-100.8,256.2-308.6c278.3-576.8,734.1-2226.6,1171.8-4241.4c66.6-306.6,121-572.8,121-590.9c0-28.2-82.7-54.5-425.5-143.2c-411.4-106.9-427.6-108.9-453.8-72.6c-16.2,22.2-171.4,310.6-344.9,645.4L7845.5-111l-46.4,635.3c-92.8,1308.9-165.4,1976.5-236,2180.2c-151.3,435.6-667.6,976.2-1331.1,1391.6c-121,74.6-131.1,86.7-108.9,121c14.1,20.2,88.7,127.1,163.4,240c76.6,110.9,147.2,201.7,157.3,201.7S6591.1,4604.4,6748.4,4535.8z M3640.4,4455.1c44.4-92.8,102.9-195.6,127.1-229.9c24.2-32.3,52.4-70.6,58.5-84.7c10.1-16.1-30.2-54.4-110.9-108.9c-381.2-256.1-802.7-637.3-1014.5-915.6c-121-159.3-252.1-395.3-302.5-542.5c-38.3-119-74.6-391.3-129.1-980.2c-50.4-528.4-123-1496.5-123-1623.6c0-82.7-40.3-171.4-324.7-711.9c-179.5-340.8-328.8-621.2-328.8-623.2c-2-2-205.7,38.3-451.8,90.8C667.6-1196.1,593-1173.9,593-1145.6c0,46.4,153.3,766.4,294.5,1377.5c379.2,1647.8,762.4,2956.7,1014.5,3454.8c106.9,211.8,151.3,246.1,572.8,457.8c375.1,185.6,1066.9,498.2,1079,486.1C3555.7,4626.5,3596.1,4547.9,3640.4,4455.1z M4166.8,3719c92.8-94.8,223.9-217.8,292.4-274.3l127.1-100.8l-246.1-141.2c-290.4-165.4-560.7-350.9-734.1-504.2c-219.8-191.6-316.6-324.7-361-490.1c-44.4-173.5-70.6-1371.5-70.6-3341.9c0-919.7-4-1669.9-10.1-1669.9c-4,0-52.4,46.4-104.9,102.9c-139.2,149.3-411.4,346.9-584.9,423.5l-149.3,68.6l12.1,262.2C2396-708,2505,1004.3,2569.5,1724.3c48.4,524.4,84.7,756.3,141.2,885.4c147.2,346.9,562.7,780.5,1115.3,1165.7c90.8,62.5,167.4,115,169.4,117C3999.4,3892.4,4076.1,3813.8,4166.8,3719z M6103,3753.3c421.5-282.4,786.6-627.2,992.3-937.8c195.6-290.4,219.8-399.3,294.4-1264.6c66.6-792.6,129.1-1791,227.9-3694.8l4-94.8l-94.8-32.3c-221.9-72.6-558.7-361-744.2-633.3c-88.8-131.1-110.9-173.4-367.1-657.5c-74.6-143.2-167.4-302.5-205.7-355l-70.6-96.8l-163.4,129.1c-197.7,155.3-439.7,280.3-651.4,334.8c-217.8,54.5-552.6,54.5-770.4,0c-203.7-52.4-492.1-193.6-665.6-324.7c-74.6-56.5-143.2-92.8-151.3-84.7c-10.1,10.1-78.7,121-151.3,248.1l-133.1,231.9l12.1,2470.6c6.1,1359.4,20.2,2613.8,30.2,2787.3c16.2,286.4,22.2,326.7,70.6,407.4c141.2,242,685.7,621.2,1347.3,939.8c310.6,147.2,506.2,292.4,762.4,560.7c104.9,110.9,197.6,201.7,205.7,203.7C5889.2,3890.4,5988,3829.9,6103,3753.3z M5282.2-3822c163.4-44.4,320.7-131.1,469.9-264.2l127.1-115l-72.6-74.6c-86.7-88.8-240-167.4-389.2-199.7c-149.3-32.3-707.9-26.2-899.5,8.1c-191.6,34.3-379.2,121-476,221.9l-70.6,74.6l98.8,86.7c125,106.9,332.8,221.9,478,260.2C4699.3-3783.7,5126.8-3781.7,5282.2-3822z"/>
</g>
</g>
</svg>